<svg width="87" height="70" viewBox="0 0 87 70" fill="none" xmlns="http://www.w3.org/2000/svg">
<path d="M79.5641 35.1638C79.5641 40.4965 76.0271 45.8263 68.9913 49.8956C54.8933 58.037 32.0367 58.0384 17.9387 49.8956C10.4152 45.5492 6.94741 39.7623 7.45586 34.0713C7.41133 34.2762 7.37788 34.4834 7.35564 34.692C6.67771 42.1213 8.96352 47.224 17.9387 52.402C32.0367 60.5448 54.8933 60.5434 68.9913 52.402C77.0631 47.7386 79.7292 41.8249 79.5641 35.1638Z" fill="url(#paint0_linear_220_14991)"/>
<g filter="url(#filter0_di_220_14991)">
<path d="M43.4663 56.0025C63.4036 56.0025 79.5661 46.6675 79.5661 35.1521C79.5661 23.6368 63.4036 14.3018 43.4663 14.3018C23.5289 14.3018 7.36646 23.6368 7.36646 35.1521C7.36646 46.6675 23.5289 56.0025 43.4663 56.0025Z" fill="url(#paint1_radial_220_14991)"/>
<path d="M79.5005 35.1521C79.5005 40.8765 75.4827 46.0713 68.9599 49.8388C62.4388 53.6052 53.4255 55.9369 43.4663 55.9369C33.507 55.9369 24.4938 53.6052 17.9726 49.8388C11.4498 46.0713 7.43201 40.8765 7.43201 35.1521C7.43201 29.4278 11.4498 24.2329 17.9726 20.4655C24.4938 16.699 33.507 14.3673 43.4663 14.3673C53.4255 14.3673 62.4388 16.699 68.9599 20.4655C75.4827 24.2329 79.5005 29.4278 79.5005 35.1521Z" stroke="url(#paint2_linear_220_14991)" stroke-width="0.131111" stroke-linejoin="round"/>
</g>
<g style="mix-blend-mode:multiply" filter="url(#filter1_f_220_14991)">
<path fill-rule="evenodd" clip-rule="evenodd" d="M57.9432 36.4581C60.2719 36.4003 62.5572 35.8305 64.6282 34.7914C67.1873 33.3524 68.1692 31.6201 68.2433 29.9979C68.3015 31.9446 67.7165 35.5458 64.6282 37.2836C62.5569 38.3219 60.2718 38.8917 57.9432 38.9504C57.6685 38.9661 57.393 38.9474 57.1232 38.8948C56.8786 38.8481 56.643 38.7641 56.4253 38.6459L47.3442 33.5346L22.2496 19.1747L24.2141 18.3013L47.3431 31.0435L56.4241 36.1547C56.6421 36.2732 56.8781 36.3569 57.1232 36.4025C57.3928 36.4563 57.6685 36.475 57.9432 36.4581ZM67.0095 25.1112C67.0781 24.1978 67.0857 23.281 67.0323 22.3667C67.0323 22.4545 67.0209 22.54 67.0084 22.6256C66.8522 23.5489 66.3857 24.3954 65.6821 25.0323C66.0647 25.3422 66.4171 25.6859 66.7347 26.059C66.8717 25.7573 66.9642 25.4382 67.0095 25.1112ZM53.1752 39.5015C53.1765 39.5413 53.1739 39.5811 53.1672 39.6204C52.9973 40.4266 52.641 41.1844 52.1255 41.8363C51.6099 42.4882 50.9486 43.0171 50.1919 43.3827C46.9558 45.0133 43.3065 45.7022 39.6796 45.3672C37.3394 45.2423 35.0323 44.7717 32.8372 43.9716C31.4531 44.4117 30.0131 44.663 28.5583 44.7183C25.4425 44.7603 22.3651 44.0443 19.605 42.6349C17.5758 41.428 15.7328 39.9465 14.131 38.2348C13.9464 37.9226 13.8212 37.5804 13.7615 37.2248C13.7083 36.8842 13.7404 36.5361 13.8551 36.2103C13.9183 36.0366 14.0021 35.8706 14.1048 35.7158C11.5354 35.0641 10.0096 34.3691 8.66745 33.1921L7.62354 34.1535C9.31874 35.9683 11.3175 37.3851 13.741 38.0526C13.6673 38.959 13.8021 39.8701 14.1356 40.7193C15.1255 42.2582 18.127 44.285 19.6096 45.1183C22.3289 46.6309 25.4356 47.3538 28.5629 47.2017C30.0176 47.1463 31.4575 46.8954 32.8417 46.4562C35.0372 47.255 37.3442 47.7255 39.6842 47.8517C43.3112 48.187 46.9607 47.4976 50.1965 45.8661C50.9535 45.5007 51.615 44.9719 52.1308 44.32C52.6465 43.668 53.0029 42.9101 53.1729 42.1038C53.1778 42.0737 53.1805 42.0432 53.1809 42.0127C53.1807 41.9888 53.1814 41.8837 53.1825 41.7285C53.1867 41.1319 53.196 39.796 53.1752 39.5015Z" fill="#083090" fill-opacity="0.4"/>
</g>
<g filter="url(#filter2_b_220_14991)">
<path fill-rule="evenodd" clip-rule="evenodd" d="M57.9426 34.8135C60.2713 34.7557 62.5566 34.1859 64.6277 33.1468C67.1867 31.7078 68.1686 29.9756 68.2428 28.3533C68.3009 30.3 67.7159 33.9012 64.6277 35.6391C62.5563 36.6774 60.2712 37.2471 57.9426 37.3058C57.6679 37.3215 57.3924 37.3029 57.1226 37.2502C56.878 37.2035 56.6425 37.1195 56.4247 37.0013L47.3436 31.8901L19.0946 16.0007C18.9609 15.9384 18.8429 15.8481 18.7491 15.7364C18.6552 15.6246 18.5879 15.494 18.5517 15.354C18.4993 15.0295 18.4765 12.8506 18.4993 12.3628C18.4998 12.3891 18.5018 12.4152 18.5038 12.4412C18.5061 12.4711 18.5084 12.5008 18.5084 12.5306C18.5175 12.6417 18.5323 12.7528 18.5517 12.8639C18.5879 13.0037 18.6552 13.1339 18.7488 13.2455C18.8424 13.3571 18.9601 13.4472 19.0934 13.5095L47.3425 29.3989L56.4236 34.5101C56.6415 34.6286 56.8775 34.7123 57.1226 34.7579C57.3922 34.8117 57.6679 34.8304 57.9426 34.8135ZM67.0092 23.4666C67.0778 22.5532 67.0854 21.6364 67.032 20.722C67.032 20.8098 67.0206 20.8954 67.008 20.9809C66.8519 21.9042 66.3853 22.7508 65.6817 23.3877C66.0644 23.6975 66.4167 24.0412 66.7343 24.4144C66.8713 24.1126 66.9639 23.7935 67.0092 23.4666ZM6.47535 23.6907C6.75931 24.246 7.16382 24.7345 7.66084 25.1222C7.26079 25.3764 6.9191 25.7086 6.65728 26.0978C6.20779 24.7447 5.99122 23.3285 6.01637 21.9066C6.03477 22.5267 6.19138 23.1355 6.47535 23.6907ZM53.1691 37.9758C53.1757 37.9365 53.1784 37.8967 53.177 37.8569C53.1979 38.1514 53.1885 39.4873 53.1843 40.0839C53.1832 40.2391 53.1825 40.3442 53.1827 40.3681C53.1823 40.3986 53.1797 40.429 53.1748 40.4592C53.0048 41.2655 52.6484 42.0234 52.1326 42.6754C51.6168 43.3273 50.9553 43.8561 50.1983 44.2215C46.9625 45.853 43.3131 46.5424 39.686 46.2071C37.346 46.0809 35.0391 45.6104 32.8436 44.8115C31.4593 45.2508 30.0194 45.5017 28.5647 45.5571C25.4374 45.7092 22.3307 44.9863 19.6114 43.4737C18.1289 42.6404 15.1273 40.6136 14.1374 39.0747C13.8039 38.2255 13.6691 37.3144 13.7429 36.408C11.3193 35.7405 9.13616 34.4248 7.44095 32.6101C6.68153 31.7459 6.27089 30.642 6.28572 29.5044C6.28686 29.4111 6.27888 28.3188 6.25949 27.5743C6.36688 28.5261 6.77995 29.4205 7.43981 30.13C9.21975 32.0495 11.5373 33.4195 14.1066 34.0712C14.004 34.226 13.9201 34.392 13.8569 34.5657C13.7422 34.8915 13.7101 35.2396 13.7634 35.5802C13.8231 35.9358 13.9482 36.2779 14.1329 36.5902C15.7346 38.3019 17.5777 39.7834 19.6068 40.9903C22.3669 42.3996 25.4443 43.1157 28.5602 43.0737C30.015 43.0184 31.4549 42.7671 32.839 42.327C35.0341 43.1271 37.3413 43.5977 39.6814 43.7226C43.3084 44.0576 46.9576 43.3687 50.1937 41.7381C50.9505 41.3725 51.6117 40.8436 52.1273 40.1917C52.6428 39.5398 52.9991 38.7819 53.1691 37.9758Z" fill="url(#paint3_linear_220_14991)"/>
</g>
<g filter="url(#filter3_bi_220_14991)">
<mask id="path-6-inside-1_220_14991" fill="white">
<path fill-rule="evenodd" clip-rule="evenodd" d="M65.6748 23.3878C66.924 24.3596 67.7984 25.7152 68.1552 27.2334C68.2069 27.4765 68.2389 27.7232 68.251 27.9712C68.3206 29.7068 67.3934 31.5958 64.6336 33.1514C62.5626 34.1905 60.2773 34.7603 57.9486 34.8181C57.6739 34.835 57.3982 34.8164 57.1286 34.7625C56.8835 34.7169 56.6475 34.6332 56.4295 34.5148L51.3684 31.668L47.3485 29.4068L19.0994 13.5174C18.966 13.4551 18.8484 13.365 18.7548 13.2534C18.6611 13.1419 18.5939 13.0116 18.5577 12.8719C18.5383 12.7608 18.5235 12.6496 18.5144 12.5385C18.4923 12.3056 18.503 12.0708 18.5463 11.8407C18.5985 11.6012 18.7045 11.3759 18.8567 11.1811C19.009 10.9863 19.2036 10.8268 19.4267 10.714C22.0203 9.33908 24.8914 8.53392 27.8383 8.35507C30.2936 8.14182 32.7674 8.43913 35.0959 9.22732C36.1376 8.76137 37.2634 8.50009 38.4088 8.4584C40.295 8.38185 42.1815 8.60017 43.9968 9.10509C46.6418 9.70077 49.066 10.9979 51.0012 12.853C51.284 12.7963 51.5782 12.7496 51.885 12.7152C53.1208 12.5894 54.3692 12.6482 55.5868 12.8897C58.3138 13.4898 60.9207 14.5237 63.3028 15.9497C65.9576 17.4376 66.9635 18.9998 67.033 20.3943C67.043 20.5902 67.0346 20.7866 67.008 20.981C66.8499 21.9051 66.3809 22.7518 65.6748 23.3878ZM52.6243 37.1227C52.802 37.2164 52.9535 37.3511 53.0656 37.5149C53.1082 37.5798 53.1394 37.6511 53.158 37.726C53.1787 37.8079 53.1818 37.893 53.1671 37.976C52.9987 38.7846 52.6429 39.545 52.1268 40.1992C51.6108 40.8534 50.9481 41.384 50.1895 41.7506C46.9536 43.3817 43.3042 44.0706 39.6772 43.7351C37.337 43.6101 35.0299 43.1396 32.8348 42.3395C31.4507 42.7795 30.0108 43.0308 28.556 43.0862C25.4286 43.2383 22.3219 42.5153 19.6026 41.0028C18.5596 40.4266 17.5544 39.7876 16.5931 39.0894L16.4608 38.9783C16.2806 38.8438 16.1004 38.7083 15.9385 38.5749C15.2017 37.9011 14.5484 37.1455 13.9918 36.3238C13.9692 36.2779 13.9505 36.2303 13.9359 36.1815C13.8551 35.9908 13.797 35.7918 13.7626 35.5882C13.7093 35.2476 13.7414 34.8996 13.8561 34.5737C13.9193 34.4 14.0032 34.234 14.1058 34.0792C11.5365 33.4275 9.21896 32.0575 7.43902 30.138C6.74763 29.4037 6.32884 28.4648 6.24957 27.4713C6.24779 27.31 6.26154 27.1489 6.29063 26.9901C6.37625 26.605 6.54182 26.241 6.77717 25.9206C7.01251 25.6001 7.31265 25.33 7.65912 25.1267C7.161 24.7385 6.75581 24.249 6.47179 23.6925C6.18777 23.1359 6.03176 22.5257 6.01465 21.9044C6.01519 21.6137 6.04769 21.3239 6.11158 21.0399C6.44545 20.016 6.989 19.0687 7.70936 18.2553C8.42971 17.4419 9.3119 16.7793 10.3026 16.3076C10.9263 16.0057 11.6091 15.8371 12.3051 15.8131C12.9179 15.78 13.5321 15.7819 14.1446 15.8187C14.5468 15.8333 14.9401 15.9378 15.2942 16.1242L24.9283 21.5433L28.0679 23.3089L52.6243 37.1227Z"/>
</mask>
<path fill-rule="evenodd" clip-rule="evenodd" d="M65.6748 23.3878C66.924 24.3596 67.7984 25.7152 68.1552 27.2334C68.2069 27.4765 68.2389 27.7232 68.251 27.9712C68.3206 29.7068 67.3934 31.5958 64.6336 33.1514C62.5626 34.1905 60.2773 34.7603 57.9486 34.8181C57.6739 34.835 57.3982 34.8164 57.1286 34.7625C56.8835 34.7169 56.6475 34.6332 56.4295 34.5148L51.3684 31.668L47.3485 29.4068L19.0994 13.5174C18.966 13.4551 18.8484 13.365 18.7548 13.2534C18.6611 13.1419 18.5939 13.0116 18.5577 12.8719C18.5383 12.7608 18.5235 12.6496 18.5144 12.5385C18.4923 12.3056 18.503 12.0708 18.5463 11.8407C18.5985 11.6012 18.7045 11.3759 18.8567 11.1811C19.009 10.9863 19.2036 10.8268 19.4267 10.714C22.0203 9.33908 24.8914 8.53392 27.8383 8.35507C30.2936 8.14182 32.7674 8.43913 35.0959 9.22732C36.1376 8.76137 37.2634 8.50009 38.4088 8.4584C40.295 8.38185 42.1815 8.60017 43.9968 9.10509C46.6418 9.70077 49.066 10.9979 51.0012 12.853C51.284 12.7963 51.5782 12.7496 51.885 12.7152C53.1208 12.5894 54.3692 12.6482 55.5868 12.8897C58.3138 13.4898 60.9207 14.5237 63.3028 15.9497C65.9576 17.4376 66.9635 18.9998 67.033 20.3943C67.043 20.5902 67.0346 20.7866 67.008 20.981C66.8499 21.9051 66.3809 22.7518 65.6748 23.3878ZM52.6243 37.1227C52.802 37.2164 52.9535 37.3511 53.0656 37.5149C53.1082 37.5798 53.1394 37.6511 53.158 37.726C53.1787 37.8079 53.1818 37.893 53.1671 37.976C52.9987 38.7846 52.6429 39.545 52.1268 40.1992C51.6108 40.8534 50.9481 41.384 50.1895 41.7506C46.9536 43.3817 43.3042 44.0706 39.6772 43.7351C37.337 43.6101 35.0299 43.1396 32.8348 42.3395C31.4507 42.7795 30.0108 43.0308 28.556 43.0862C25.4286 43.2383 22.3219 42.5153 19.6026 41.0028C18.5596 40.4266 17.5544 39.7876 16.5931 39.0894L16.4608 38.9783C16.2806 38.8438 16.1004 38.7083 15.9385 38.5749C15.2017 37.9011 14.5484 37.1455 13.9918 36.3238C13.9692 36.2779 13.9505 36.2303 13.9359 36.1815C13.8551 35.9908 13.797 35.7918 13.7626 35.5882C13.7093 35.2476 13.7414 34.8996 13.8561 34.5737C13.9193 34.4 14.0032 34.234 14.1058 34.0792C11.5365 33.4275 9.21896 32.0575 7.43902 30.138C6.74763 29.4037 6.32884 28.4648 6.24957 27.4713C6.24779 27.31 6.26154 27.1489 6.29063 26.9901C6.37625 26.605 6.54182 26.241 6.77717 25.9206C7.01251 25.6001 7.31265 25.33 7.65912 25.1267C7.161 24.7385 6.75581 24.249 6.47179 23.6925C6.18777 23.1359 6.03176 22.5257 6.01465 21.9044C6.01519 21.6137 6.04769 21.3239 6.11158 21.0399C6.44545 20.016 6.989 19.0687 7.70936 18.2553C8.42971 17.4419 9.3119 16.7793 10.3026 16.3076C10.9263 16.0057 11.6091 15.8371 12.3051 15.8131C12.9179 15.78 13.5321 15.7819 14.1446 15.8187C14.5468 15.8333 14.9401 15.9378 15.2942 16.1242L24.9283 21.5433L28.0679 23.3089L52.6243 37.1227Z" fill="url(#paint4_linear_220_14991)" fill-opacity="0.35"/>
<path d="M68.1552 27.2334L68.2835 27.2062L68.2828 27.2034L68.1552 27.2334ZM65.6748 23.3878L65.5871 23.2903L65.4707 23.3951L65.5943 23.4912L65.6748 23.3878ZM68.251 27.9712L68.382 27.966L68.382 27.9648L68.251 27.9712ZM64.6336 33.1514L64.6925 33.2687L64.698 33.2656L64.6336 33.1514ZM57.9486 34.8181L57.9453 34.6869L57.9405 34.6872L57.9486 34.8181ZM57.1286 34.7625L57.1543 34.634L57.1526 34.6336L57.1286 34.7625ZM56.4295 34.5148L56.3652 34.629L56.3669 34.6299L56.4295 34.5148ZM51.3684 31.668L51.3041 31.7823V31.7823L51.3684 31.668ZM47.3485 29.4068L47.4127 29.2926V29.2925L47.3485 29.4068ZM19.0994 13.5174L19.1639 13.4028L19.1549 13.3987L19.0994 13.5174ZM18.5577 12.8719L18.4281 12.8945L18.4308 12.9047L18.5577 12.8719ZM18.5144 12.5385L18.6451 12.5278L18.6449 12.5261L18.5144 12.5385ZM18.5463 11.8407L18.4181 11.8128L18.4174 11.8165L18.5463 11.8407ZM18.8567 11.1811L18.96 11.2618V11.2618L18.8567 11.1811ZM19.4267 10.714L19.4858 10.8311L19.4881 10.8299L19.4267 10.714ZM27.8383 8.35507L27.8463 8.48598L27.8497 8.48569L27.8383 8.35507ZM35.0959 9.22732L35.0539 9.3515L35.1025 9.36798L35.1494 9.347L35.0959 9.22732ZM38.4088 8.4584L38.4136 8.58943L38.4141 8.58941L38.4088 8.4584ZM43.9968 9.10509L43.9616 9.23156L43.968 9.233L43.9968 9.10509ZM51.0012 12.853L50.9105 12.9476L50.9599 12.995L51.0269 12.9815L51.0012 12.853ZM51.885 12.7152L51.8717 12.5848L51.8704 12.5849L51.885 12.7152ZM55.5868 12.8897L55.615 12.7616L55.6123 12.761L55.5868 12.8897ZM63.3028 15.9497L63.2354 16.0623L63.2387 16.0641L63.3028 15.9497ZM67.033 20.3943L66.9021 20.4009L66.9021 20.401L67.033 20.3943ZM67.008 20.981L67.1373 21.0031L67.1379 20.9988L67.008 20.981ZM53.0656 37.5149L53.1753 37.443L53.1738 37.4408L53.0656 37.5149ZM52.6243 37.1227L52.56 37.237L52.5631 37.2386L52.6243 37.1227ZM53.158 37.726L53.0307 37.7576L53.0309 37.7581L53.158 37.726ZM53.1671 37.976L53.2955 38.0028L53.2962 37.9988L53.1671 37.976ZM52.1268 40.1992L52.0239 40.118L52.1268 40.1992ZM50.1895 41.7506L50.1325 41.6325L50.1305 41.6335L50.1895 41.7506ZM39.6772 43.7351L39.6893 43.6044L39.6842 43.6042L39.6772 43.7351ZM32.8348 42.3395L32.8797 42.2163L32.8377 42.201L32.795 42.2145L32.8348 42.3395ZM28.556 43.0862L28.551 42.9552L28.5496 42.9552L28.556 43.0862ZM19.6026 41.0028L19.6663 40.8882L19.666 40.888L19.6026 41.0028ZM16.5931 39.0894L16.5085 39.19L16.516 39.1955L16.5931 39.0894ZM16.4608 38.9783L16.5453 38.8777L16.5392 38.8732L16.4608 38.9783ZM15.9385 38.5749L15.8499 38.6718L15.8551 38.6761L15.9385 38.5749ZM13.9918 36.3238L13.8742 36.3817L13.8782 36.3898L13.8833 36.3973L13.9918 36.3238ZM13.9359 36.1815L14.0615 36.1439L14.0595 36.137L14.0566 36.1304L13.9359 36.1815ZM13.7626 35.5882L13.633 35.6084L13.6333 35.61L13.7626 35.5882ZM13.8561 34.5737L13.7329 34.5288L13.7324 34.5302L13.8561 34.5737ZM14.1058 34.0792L14.2151 34.1517L14.3173 33.9976L14.1381 33.9522L14.1058 34.0792ZM7.43902 30.138L7.53516 30.0489L7.53448 30.0481L7.43902 30.138ZM6.24957 27.4713L6.11816 27.4727L6.11888 27.4817L6.24957 27.4713ZM6.29063 26.9901L6.16255 26.9617L6.16166 26.9665L6.29063 26.9901ZM6.77717 25.9206L6.88284 25.9982L6.77717 25.9206ZM7.65912 25.1267L7.72546 25.2398L7.89207 25.1421L7.73972 25.0233L7.65912 25.1267ZM6.47179 23.6925L6.58857 23.6329L6.47179 23.6925ZM6.01465 21.9044L5.88348 21.9042L5.88359 21.908L6.01465 21.9044ZM6.11158 21.0399L5.98638 20.9991L5.98367 21.0112L6.11158 21.0399ZM10.3026 16.3076L10.359 16.426L10.3597 16.4256L10.3026 16.3076ZM12.3051 15.8131L12.3097 15.9442L12.3122 15.944L12.3051 15.8131ZM14.1446 15.8187L14.1368 15.9496L14.1399 15.9497L14.1446 15.8187ZM15.2942 16.1242L15.3585 16.0099L15.3552 16.0082L15.2942 16.1242ZM24.9283 21.5433L24.864 21.6576L24.8641 21.6576L24.9283 21.5433ZM28.0679 23.3089L28.1321 23.1946L28.1321 23.1946L28.0679 23.3089ZM68.2828 27.2034C67.919 25.6556 67.0278 24.2742 65.7553 23.2843L65.5943 23.4912C66.8203 24.445 67.6777 25.7748 68.0276 27.2634L68.2828 27.2034ZM68.382 27.9648C68.3695 27.7098 68.3366 27.4562 68.2835 27.2062L68.027 27.2607C68.0772 27.4969 68.1083 27.7366 68.12 27.9776L68.382 27.9648ZM64.698 33.2656C67.4889 31.6925 68.454 29.7629 68.382 27.966L68.12 27.9765C68.1871 29.6508 67.2979 31.4991 64.5692 33.0372L64.698 33.2656ZM57.9518 34.9492C60.2998 34.8909 62.604 34.3164 64.6924 33.2686L64.5748 33.0342C62.5211 34.0646 60.2549 34.6297 57.9453 34.687L57.9518 34.9492ZM57.1029 34.8911C57.3836 34.9471 57.6707 34.9666 57.9566 34.949L57.9405 34.6872C57.6771 34.7035 57.4127 34.6856 57.1543 34.634L57.1029 34.8911ZM56.3669 34.6299C56.597 34.755 56.846 34.8433 57.1046 34.8914L57.1526 34.6336C56.9209 34.5905 56.6979 34.5115 56.4922 34.3996L56.3669 34.6299ZM51.3041 31.7823L56.3652 34.629L56.4938 34.4005L51.4327 31.5537L51.3041 31.7823ZM47.2842 29.5211L51.3041 31.7823L51.4327 31.5537L47.4127 29.2926L47.2842 29.5211ZM19.0351 13.6317L47.2842 29.5211L47.4127 29.2925L19.1637 13.4032L19.0351 13.6317ZM18.6543 13.3377C18.7604 13.4641 18.8934 13.5659 19.0439 13.6362L19.1549 13.3987C19.0386 13.3444 18.9364 13.2659 18.8552 13.1692L18.6543 13.3377ZM18.4308 12.9047C18.4719 13.0635 18.5483 13.2113 18.6543 13.3377L18.8552 13.1692C18.774 13.0724 18.7159 12.9597 18.6846 12.839L18.4308 12.9047ZM18.3837 12.5493C18.3932 12.6648 18.4086 12.7799 18.4285 12.8944L18.6869 12.8493C18.6681 12.7416 18.6538 12.6345 18.645 12.5278L18.3837 12.5493ZM18.4174 11.8165C18.3719 12.0586 18.3606 12.3057 18.3838 12.5509L18.6449 12.5261C18.624 12.3055 18.6341 12.083 18.6751 11.865L18.4174 11.8165ZM18.7534 11.1004C18.5892 11.3106 18.4746 11.5539 18.4182 11.8128L18.6744 11.8686C18.7224 11.6485 18.8198 11.4413 18.96 11.2618L18.7534 11.1004ZM19.3676 10.597C19.1275 10.7184 18.9177 10.8902 18.7534 11.1004L18.96 11.2618C19.1003 11.0824 19.2798 10.9352 19.4858 10.831L19.3676 10.597ZM27.8304 8.2242C24.8649 8.40417 21.9756 9.21441 19.3653 10.5982L19.4881 10.8299C22.0651 9.46374 24.9179 8.66366 27.8463 8.48594L27.8304 8.2242ZM35.1379 9.10313C32.7922 8.30912 30.3003 8.00964 27.827 8.22445L27.8497 8.48569C30.287 8.274 32.7426 8.56914 35.0539 9.3515L35.1379 9.10313ZM38.404 8.32738C37.2418 8.36967 36.0995 8.63478 35.0424 9.10763L35.1494 9.347C36.1757 8.88796 37.2849 8.6305 38.4136 8.58943L38.404 8.32738ZM44.0319 8.97877C42.2035 8.47019 40.3033 8.25029 38.4035 8.3274L38.4141 8.58941C40.2867 8.5134 42.1596 8.73016 43.9617 9.23141L44.0319 8.97877ZM51.0919 12.7583C49.1393 10.8866 46.6936 9.57804 44.0256 8.97718L43.968 9.233C46.59 9.8235 48.9927 11.1093 50.9105 12.9476L51.0919 12.7583ZM51.8704 12.5849C51.5598 12.6198 51.2618 12.667 50.9754 12.7244L51.0269 12.9815C51.3062 12.9256 51.5967 12.8795 51.8996 12.8455L51.8704 12.5849ZM55.6123 12.761C54.3819 12.5171 53.1205 12.4576 51.8717 12.5848L51.8983 12.8456C53.1212 12.7211 54.3564 12.7793 55.5613 13.0183L55.6123 12.761ZM63.3701 15.8373C60.9759 14.4039 58.3557 13.3648 55.615 12.7616L55.5586 13.0177C58.2719 13.6149 60.8656 14.6435 63.2354 16.0622L63.3701 15.8373ZM67.164 20.3878C67.0912 18.9281 66.0395 17.3331 63.3669 15.8354L63.2387 16.0641C65.8758 17.542 66.8358 19.0716 66.9021 20.4009L67.164 20.3878ZM67.1379 20.9988C67.1656 20.7963 67.1744 20.5917 67.164 20.3877L66.9021 20.401C66.9117 20.5887 66.9036 20.7769 66.8781 20.9632L67.1379 20.9988ZM65.7626 23.4852C66.4903 22.8298 66.9741 21.9567 67.1372 21.0031L66.8787 20.9589C66.7257 21.8536 66.2716 22.6738 65.5871 23.2903L65.7626 23.4852ZM53.1738 37.4408C53.0495 37.2592 52.8818 37.1103 52.6855 37.0067L52.5631 37.2386C52.7222 37.3226 52.8575 37.4429 52.9574 37.589L53.1738 37.4408ZM53.2852 37.6944C53.2631 37.6051 53.2259 37.5202 53.1752 37.443L52.956 37.5868C52.9905 37.6394 53.0157 37.6972 53.0307 37.7576L53.2852 37.6944ZM53.2962 37.9988C53.3141 37.8975 53.3103 37.7937 53.2851 37.6939L53.0309 37.7581C53.047 37.822 53.0494 37.8884 53.038 37.9532L53.2962 37.9988ZM52.2298 40.2804C52.7583 39.6104 53.1229 38.8314 53.2955 38.0028L53.0388 37.9493C52.8745 38.7378 52.5275 39.4796 52.0239 40.118L52.2298 40.2804ZM50.2466 41.8686C51.0229 41.4935 51.7013 40.9503 52.2298 40.2804L52.0239 40.118C51.5203 40.7564 50.8734 41.2745 50.1325 41.6325L50.2466 41.8686ZM39.6651 43.8656C43.3165 44.2034 46.9905 43.5099 50.2485 41.8677L50.1305 41.6335C46.9167 43.2534 43.2919 43.9378 39.6893 43.6045L39.6651 43.8656ZM32.7899 42.4627C34.9972 43.2672 37.3171 43.7404 39.6702 43.866L39.6842 43.6042C37.3569 43.4799 35.0626 43.0119 32.8797 42.2163L32.7899 42.4627ZM28.5609 43.2172C30.0275 43.1614 31.4791 42.9081 32.8745 42.4644L32.795 42.2145C31.4223 42.651 29.994 42.9003 28.551 42.9552L28.5609 43.2172ZM19.5389 41.1174C22.2797 42.6419 25.4107 43.3704 28.5623 43.2171L28.5496 42.9552C25.4465 43.1061 22.3641 42.3888 19.6663 40.8882L19.5389 41.1174ZM16.516 39.1955C17.4818 39.8968 18.4914 40.5388 19.5392 41.1175L19.666 40.888C18.6277 40.3145 17.6271 39.6783 16.6701 38.9833L16.516 39.1955ZM16.3765 39.0787L16.5088 39.1898L16.6774 38.989L16.5451 38.8779L16.3765 39.0787ZM15.8551 38.6761C16.0198 38.8117 16.2023 38.949 16.3824 39.0834L16.5392 38.8732C16.3589 38.7386 16.181 38.6048 16.0218 38.4737L15.8551 38.6761ZM13.8833 36.3973C14.4456 37.2276 15.1057 37.9909 15.85 38.6717L16.027 38.4782C15.2977 37.8112 14.6512 37.0635 14.1004 36.2502L13.8833 36.3973ZM13.8103 36.2191C13.827 36.2749 13.8484 36.3293 13.8742 36.3817L14.1094 36.2658C14.0901 36.2265 14.074 36.1857 14.0615 36.1439L13.8103 36.2191ZM13.6333 35.61C13.6694 35.8237 13.7304 36.0326 13.8152 36.2327L14.0566 36.1304C13.9798 35.949 13.9245 35.7598 13.8919 35.5663L13.6333 35.61ZM13.7324 34.5302C13.6106 34.8764 13.5764 35.2464 13.633 35.6084L13.8921 35.5679C13.8422 35.2488 13.8723 34.9227 13.9798 34.6172L13.7324 34.5302ZM13.9966 34.0068C13.8882 34.1701 13.7997 34.3454 13.7329 34.5288L13.9793 34.6185C14.039 34.4546 14.1181 34.2979 14.2151 34.1517L13.9966 34.0068ZM7.34288 30.2272C9.14024 32.1654 11.48 33.5485 14.0736 34.2063L14.1381 33.9522C11.5929 33.3066 9.29767 31.9495 7.53516 30.0489L7.34288 30.2272ZM6.11888 27.4817C6.20055 28.5053 6.632 29.4721 7.34356 30.2279L7.53448 30.0481C6.86326 29.3352 6.45714 28.4242 6.38027 27.4608L6.11888 27.4817ZM6.16166 26.9665C6.13106 27.1335 6.1166 27.303 6.11847 27.4727L6.38068 27.4698C6.37899 27.317 6.39202 27.1643 6.41959 27.0138L6.16166 26.9665ZM6.67149 25.843C6.42547 26.178 6.25224 26.5587 6.16264 26.9617L6.41861 27.0186C6.50026 26.6514 6.65818 26.3041 6.88284 25.9982L6.67149 25.843ZM7.59278 25.0137C7.23108 25.2258 6.91751 25.508 6.67149 25.843L6.88284 25.9982C7.10751 25.6923 7.39421 25.4341 7.72546 25.2398L7.59278 25.0137ZM6.35501 23.7521C6.64783 24.3259 7.06545 24.8302 7.57851 25.2302L7.73972 25.0233C7.25655 24.6467 6.86378 24.1721 6.58857 23.6329L6.35501 23.7521ZM5.88359 21.908C5.90124 22.5489 6.06217 23.1783 6.35501 23.7521L6.58857 23.6329C6.31337 23.0936 6.16229 22.5025 6.14571 21.9008L5.88359 21.908ZM5.98367 21.0112C5.91767 21.3045 5.8841 21.6039 5.88354 21.9042L6.14576 21.9047C6.14628 21.6236 6.17771 21.3433 6.2395 21.0687L5.98367 21.0112ZM7.6112 18.1684C6.87905 18.9951 6.32642 19.9581 5.98693 20.9993L6.23624 21.0806C6.56449 20.0739 7.09896 19.1423 7.80751 18.3422L7.6112 18.1684ZM10.2462 16.1892C9.2398 16.6684 8.34335 17.3417 7.6112 18.1684L7.80751 18.3422C8.51607 17.5421 9.38401 16.8902 10.359 16.426L10.2462 16.1892ZM12.3006 15.6821C11.5864 15.7067 10.8858 15.8797 10.2455 16.1896L10.3597 16.4256C10.9669 16.1317 11.6318 15.9675 12.3097 15.9442L12.3006 15.6821ZM14.1525 15.6878C13.535 15.6507 12.9158 15.6488 12.2981 15.6822L12.3122 15.944C12.92 15.9112 13.5292 15.913 14.1368 15.9496L14.1525 15.6878ZM15.3552 16.0082C14.9837 15.8126 14.5711 15.7029 14.1494 15.6877L14.1399 15.9497C14.5225 15.9636 14.8965 16.063 15.2331 16.2403L15.3552 16.0082ZM24.9926 21.429L15.3584 16.01L15.2299 16.2385L24.864 21.6576L24.9926 21.429ZM28.1321 23.1946L24.9926 21.429L24.8641 21.6576L28.0036 23.4232L28.1321 23.1946ZM52.6886 37.0084L28.1321 23.1946L28.0036 23.4232L52.56 37.2369L52.6886 37.0084Z" fill="url(#paint5_linear_220_14991)" mask="url(#path-6-inside-1_220_14991)"/>
</g>
<defs>
<filter id="filter0_di_220_14991" x="0.8109" y="12.9906" width="85.3108" height="54.8118" filterUnits="userSpaceOnUse" color-interpolation-filters="sRGB">
<feFlood flood-opacity="0" result="BackgroundImageFix"/>
<feColorMatrix in="SourceAlpha" type="matrix" values="0 0 0 0 0 0 0 0 0 0 0 0 0 0 0 0 0 0 127 0" result="hardAlpha"/>
<feOffset dy="5.24444"/>
<feGaussianBlur stdDeviation="3.27778"/>
<feComposite in2="hardAlpha" operator="out"/>
<feColorMatrix type="matrix" values="0 0 0 0 0.0980392 0 0 0 0 0.211765 0 0 0 0 0.482353 0 0 0 0.5 0"/>
<feBlend mode="normal" in2="BackgroundImageFix" result="effect1_dropShadow_220_14991"/>
<feBlend mode="normal" in="SourceGraphic" in2="effect1_dropShadow_220_14991" result="shape"/>
<feColorMatrix in="SourceAlpha" type="matrix" values="0 0 0 0 0 0 0 0 0 0 0 0 0 0 0 0 0 0 127 0" result="hardAlpha"/>
<feOffset/>
<feGaussianBlur stdDeviation="2.62222"/>
<feComposite in2="hardAlpha" operator="arithmetic" k2="-1" k3="1"/>
<feColorMatrix type="matrix" values="0 0 0 0 1 0 0 0 0 1 0 0 0 0 1 0 0 0 0.25 0"/>
<feBlend mode="normal" in2="shape" result="effect2_innerShadow_220_14991"/>
</filter>
<filter id="filter1_f_220_14991" x="5.00131" y="15.679" width="65.868" height="34.8777" filterUnits="userSpaceOnUse" color-interpolation-filters="sRGB">
<feFlood flood-opacity="0" result="BackgroundImageFix"/>
<feBlend mode="normal" in="SourceGraphic" in2="BackgroundImageFix" result="shape"/>
<feGaussianBlur stdDeviation="1.31111" result="effect1_foregroundBlur_220_14991"/>
</filter>
<filter id="filter2_b_220_14991" x="4.70329" y="11.0517" width="64.8544" height="36.549" filterUnits="userSpaceOnUse" color-interpolation-filters="sRGB">
<feFlood flood-opacity="0" result="BackgroundImageFix"/>
<feGaussianBlur in="BackgroundImageFix" stdDeviation="0.655556"/>
<feComposite in2="SourceAlpha" operator="in" result="effect1_backgroundBlur_220_14991"/>
<feBlend mode="normal" in="SourceGraphic" in2="effect1_backgroundBlur_220_14991" result="shape"/>
</filter>
<filter id="filter3_bi_220_14991" x="2.08132" y="4.35475" width="70.1067" height="43.3965" filterUnits="userSpaceOnUse" color-interpolation-filters="sRGB">
<feFlood flood-opacity="0" result="BackgroundImageFix"/>
<feGaussianBlur in="BackgroundImageFix" stdDeviation="1.96667"/>
<feComposite in2="SourceAlpha" operator="in" result="effect1_backgroundBlur_220_14991"/>
<feBlend mode="normal" in="SourceGraphic" in2="effect1_backgroundBlur_220_14991" result="shape"/>
<feColorMatrix in="SourceAlpha" type="matrix" values="0 0 0 0 0 0 0 0 0 0 0 0 0 0 0 0 0 0 127 0" result="hardAlpha"/>
<feOffset/>
<feGaussianBlur stdDeviation="0.983333"/>
<feComposite in2="hardAlpha" operator="arithmetic" k2="-1" k3="1"/>
<feColorMatrix type="matrix" values="0 0 0 0 1 0 0 0 0 1 0 0 0 0 1 0 0 0 0.5 0"/>
<feBlend mode="normal" in2="shape" result="effect2_innerShadow_220_14991"/>
</filter>
<linearGradient id="paint0_linear_220_14991" x1="76.1279" y1="22.2757" x2="9.44036" y2="43.7321" gradientUnits="userSpaceOnUse">
<stop stop-color="#00298D"/>
<stop offset="0.189268" stop-color="#2349A7"/>
<stop offset="0.646435" stop-color="#3155AD"/>
<stop offset="1" stop-color="#032C91"/>
</linearGradient>
<radialGradient id="paint1_radial_220_14991" cx="0" cy="0" r="1" gradientUnits="userSpaceOnUse" gradientTransform="translate(43.4663 35.1521) rotate(90) scale(28.6214 49.5543)">
<stop offset="0.0520833" stop-color="#062E8D"/>
<stop offset="1" stop-color="#2968FE"/>
</radialGradient>
<linearGradient id="paint2_linear_220_14991" x1="31.9512" y1="13.1032" x2="51.5522" y2="54.7904" gradientUnits="userSpaceOnUse">
<stop stop-color="white" stop-opacity="0"/>
<stop offset="1" stop-color="white" stop-opacity="0.43"/>
</linearGradient>
<linearGradient id="paint3_linear_220_14991" x1="68.309" y1="61.8048" x2="21.0184" y2="-7.06142" gradientUnits="userSpaceOnUse">
<stop stop-color="#E9F7FF"/>
<stop offset="0.579246" stop-color="#D7F0FF" stop-opacity="0.57"/>
<stop offset="0.956471" stop-color="#BDE7FF" stop-opacity="0"/>
</linearGradient>
<linearGradient id="paint4_linear_220_14991" x1="6.01465" y1="5.21981" x2="63.3373" y2="50.0987" gradientUnits="userSpaceOnUse">
<stop offset="0.0529546" stop-color="#3FA6E0"/>
<stop offset="0.461273" stop-color="#79CFFF"/>
<stop offset="1" stop-color="#79CFFF"/>
</linearGradient>
<linearGradient id="paint5_linear_220_14991" x1="66.6261" y1="49.0076" x2="11.4167" y2="10.1172" gradientUnits="userSpaceOnUse">
<stop stop-color="#E9F7FF"/>
<stop offset="0.923987" stop-color="#BDE7FF" stop-opacity="0"/>
</linearGradient>
</defs>
</svg>
